<svg width="16" height="10" viewBox="0 0 16 10" fill="none" xmlns="http://www.w3.org/2000/svg">
<path fill-rule="evenodd" clip-rule="evenodd" d="M16 5C16 4.85268 15.9398 4.71139 15.8326 4.60722C15.7255 4.50305 15.5802 4.44452 15.4286 4.44452H1.95175L5.5481 0.949458C5.60122 0.897811 5.64336 0.836499 5.67211 0.76902C5.70087 0.701541 5.71566 0.629218 5.71566 0.556179C5.71566 0.483141 5.70087 0.410817 5.67211 0.343339C5.64336 0.27586 5.60122 0.214547 5.5481 0.162901C5.49497 0.111255 5.4319 0.0702873 5.36249 0.0423367C5.29308 0.014386 5.21868 0 5.14355 0C5.06842 0 4.99402 0.014386 4.92461 0.0423367C4.8552 0.0702873 4.79213 0.111255 4.739 0.162901L0.167868 4.60672C0.114656 4.65832 0.0724385 4.71962 0.0436329 4.7871C0.0148274 4.85459 0 4.92694 0 5C0 5.07306 0.0148274 5.14541 0.0436329 5.2129C0.0724385 5.28038 0.114656 5.34168 0.167868 5.39328L4.739 9.8371C4.79213 9.88875 4.8552 9.92971 4.92461 9.95766C4.99402 9.98561 5.06842 10 5.14355 10C5.21868 10 5.29308 9.98561 5.36249 9.95766C5.4319 9.92971 5.49497 9.88875 5.5481 9.8371C5.60122 9.78545 5.64336 9.72414 5.67211 9.65666C5.70087 9.58918 5.71566 9.51686 5.71566 9.44382C5.71566 9.37078 5.70087 9.29846 5.67211 9.23098C5.64336 9.1635 5.60122 9.10219 5.5481 9.05054L1.95175 5.55548H15.4286C15.5802 5.55548 15.7255 5.49695 15.8326 5.39278C15.9398 5.28861 16 5.14732 16 5Z" fill="#7B8C98"/>
</svg>
