<svg width="32" height="14" viewBox="0 0 32 14" fill="none" xmlns="http://www.w3.org/2000/svg">
<path d="M0 0.695407H3.31328V13.5H0V0.695407ZM24.4941 13.3046H27.477C27.601 12.8155 27.6694 12.5435 27.6832 12.4888C27.9533 12.8169 28.2503 13.0633 28.5762 13.2266C28.9008 13.3907 29.3866 13.4724 29.7627 13.4724C30.2863 13.4724 30.7379 13.3345 31.1191 13.0582C31.4996 12.7828 31.7422 12.4561 31.8452 12.0808C31.9484 11.7046 32 11.133 32 10.3646V6.77209C32 5.99941 31.9826 5.49505 31.9484 5.258C31.9142 5.02116 31.8126 4.77984 31.6435 4.53284C31.4742 4.28564 31.2281 4.09389 30.9056 3.95678C30.5833 3.81988 30.2027 3.75122 29.7643 3.75122C29.3829 3.75122 28.8951 3.8278 28.5698 3.97872C28.2452 4.12964 27.9505 4.35856 27.686 4.66549V0.5H24.4941V13.3046ZM15.8403 13.4161V0.611515H18.3119C19.9159 0.611515 20.8381 0.685859 21.4038 0.833125C21.9687 0.980391 22.3984 1.22251 22.6932 1.5593C22.9874 1.89608 23.1711 2.27145 23.2452 2.68481C23.3184 3.09736 23.3658 3.90945 23.3658 5.12109V9.61747C23.3658 10.7655 23.3018 11.5331 23.1936 11.9195C23.0861 12.3066 22.898 12.6091 22.6301 12.8279C22.3614 13.0458 22.0304 13.199 21.6361 13.2857C21.3816 13.3422 20.816 13.3842 19.94 13.4135L19.8542 13.4161H15.8403ZM8.71436 0.68464C8.83717 1.44412 8.96525 2.32873 9.09959 3.3409C9.13095 3.55744 9.28917 4.64212 9.57384 6.59355L10.3413 0.611515H14.6698V13.4161H11.777L11.766 4.77334L10.6079 13.4161H8.54056L7.31932 4.96144L7.30901 13.4161H4.40685V0.611515H8.70242L8.71436 0.68464ZM28.7114 11.3721C28.6503 11.5346 28.3832 11.617 28.1813 11.617C27.9838 11.617 27.8523 11.5382 27.7856 11.3802C27.7188 11.2226 27.686 10.8632 27.686 10.3006V6.91652C27.686 6.33334 27.7151 5.96955 27.774 5.82452C27.8321 5.68091 27.9598 5.60799 28.1574 5.60799C28.3592 5.60799 28.6301 5.69045 28.6997 5.8558C28.7687 6.02134 28.8037 6.37499 28.8037 6.91652V10.1976C28.7826 10.872 28.7521 11.2634 28.7114 11.3721ZM19.1505 2.80141V11.2065H19.1728C19.6353 11.2037 19.9212 11.1082 20.0298 10.9187C20.1395 10.7261 20.1947 10.2043 20.1947 9.35199V4.38761C20.1947 3.80891 20.1759 3.43861 20.1395 3.2753C20.1033 3.11198 20.0191 2.99234 19.8884 2.91577C19.7597 2.84122 19.5191 2.80263 19.1675 2.80141H19.1505Z" fill="black"/>
</svg>
