<svg width="22" height="22" viewBox="0 0 22 22" fill="none" xmlns="http://www.w3.org/2000/svg">
<path fill-rule="evenodd" clip-rule="evenodd" d="M11.2515 21.8104C12.5606 21.411 13.0997 20.6781 13.0855 19.3163C13.0806 18.8591 12.9792 18.2205 12.8598 17.8963C12.2327 16.1919 12.2379 16.2138 12.3899 15.8712C12.4715 15.6874 12.6849 15.4683 12.8642 15.3845C13.2966 15.1822 13.5549 15.3564 14.1393 16.2449C14.9689 17.5061 16.4634 18.9402 17.4337 19.407C18.2116 19.7807 18.4303 19.8257 19.2467 19.778C20.0576 19.7311 20.2699 19.6573 20.9216 19.1963C21.7774 18.5911 22.0077 18.0982 21.9998 16.8909C21.9916 15.6813 21.3806 14.6828 20.1658 13.8938C19.4227 13.4109 17.841 12.9141 16.6899 12.8018C15.2224 12.6584 14.7042 12.4127 14.5171 11.7699C14.3347 11.1451 14.5264 10.6326 15.1078 10.1908C15.4039 9.96547 15.7667 9.88972 16.8613 9.82397C17.7426 9.7713 18.3925 9.65903 18.6597 9.51369C20.5712 8.4748 20.6955 5.10436 18.8705 3.80171C18.3599 3.43721 18.1712 3.38492 17.3865 3.38953C15.5795 3.39992 14.3572 4.6149 13.7807 6.97529C13.7339 7.16599 13.5531 7.48013 13.3782 7.67352C13.0091 8.08262 12.3151 8.14491 11.7093 7.82348C11.0991 7.49897 11.0205 6.78766 11.372 4.75332C11.8089 2.22223 11.5716 1.16219 10.4125 0.464723C9.67468 0.0206372 8.36291 -0.135082 7.58349 0.129063C6.89616 0.362064 6.00106 1.30599 5.79479 2.01498C5.37925 3.44452 5.70869 4.35037 7.25031 6.01214C7.89796 6.71037 8.46699 7.40976 8.51566 7.56625C8.73653 8.28179 7.89646 9.10306 7.1219 8.9285C6.68015 8.82853 6.25975 8.38906 5.57616 7.31095C4.47778 5.57805 2.94365 5.02477 1.43235 5.81682C0.132187 6.49814 -0.204369 8.03725 0.658911 9.35297C1.15981 10.1166 2.05903 10.6256 3.44417 10.9294C5.45 11.3696 6.01491 11.8168 5.46759 12.5312C5.18383 12.9018 5.15687 12.908 4.22284 12.8034C2.81337 12.6461 2.26717 12.7042 1.48438 13.0944C0.66827 13.5012 0.312629 13.9511 0.0906325 14.8569C-0.354859 16.6737 0.891765 18.2831 2.73737 18.2751C3.70921 18.2704 4.44708 17.8583 5.68061 16.6318C7.04328 15.2764 7.28662 15.1334 7.7265 15.4294C8.20793 15.7536 8.2682 16.2338 7.93839 17.1193C7.18816 19.1325 7.88036 21.2256 9.49199 21.8154C10.1673 22.0627 10.4279 22.0619 11.2515 21.8108V21.8104Z" fill="white"/>
</svg>
