<svg width="14" height="14" viewBox="0 0 14 14" fill="none" xmlns="http://www.w3.org/2000/svg">
<path fill-rule="evenodd" clip-rule="evenodd" d="M9.88338 8.93267L13.47 12.5193C13.5961 12.6455 13.6669 12.8166 13.6668 12.9949C13.6668 13.1733 13.5959 13.3443 13.4697 13.4703C13.3436 13.5964 13.1725 13.6672 12.9941 13.6671C12.8158 13.6671 12.6448 13.5962 12.5187 13.47L8.93205 9.88333C7.85986 10.7138 6.51157 11.1046 5.16147 10.9762C3.81137 10.8479 2.56087 10.21 1.66437 9.19241C0.76787 8.1748 0.292709 6.85388 0.33555 5.49836C0.378391 4.14285 0.936016 2.85457 1.89499 1.8956C2.85396 0.936634 4.14223 0.379009 5.49775 0.336168C6.85326 0.293327 8.17418 0.768488 9.19179 1.66499C10.2094 2.56149 10.8473 3.81198 10.9756 5.16208C11.104 6.51219 10.7132 7.86047 9.88271 8.93267H9.88338ZM5.66671 9.66667C6.72758 9.66667 7.745 9.24524 8.49514 8.49509C9.24529 7.74495 9.66671 6.72753 9.66671 5.66667C9.66671 4.6058 9.24529 3.58839 8.49514 2.83824C7.745 2.08809 6.72758 1.66667 5.66671 1.66667C4.60585 1.66667 3.58843 2.08809 2.83829 2.83824C2.08814 3.58839 1.66672 4.6058 1.66672 5.66667C1.66672 6.72753 2.08814 7.74495 2.83829 8.49509C3.58843 9.24524 4.60585 9.66667 5.66671 9.66667Z" fill="#7B8C98"/>
</svg>
